<?xml version="1.0" standalone="no"?>
<!DOCTYPE svg PUBLIC "-//W3C//DTD SVG 20010904//EN"
 "http://www.w3.org/TR/2001/REC-SVG-20010904/DTD/svg10.dtd">
<svg version="1.0" xmlns="http://www.w3.org/2000/svg"
 width="1080.000000pt" height="1080.000000pt" viewBox="0 0 1080.000000 1080.000000"
 preserveAspectRatio="xMidYMid meet">

<g transform="translate(0.000000,1080.000000) scale(0.100000,-0.100000)"
fill="#000000" stroke="none">
<path d="M5335 6892 c-170 -87 -697 -267 -1028 -352 -111 -29 -133 -32 -161
-22 -107 39 -197 -44 -151 -141 19 -40 50 -57 106 -57 32 0 47 6 69 29 22 24
50 36 146 61 340 90 611 180 972 322 l102 41 68 -31 c270 -123 904 -324 1190
-377 73 -14 142 -25 153 -25 22 0 25 6 34 72 l6 46 -58 12 c-117 23 -371 84
-488 117 -277 78 -731 240 -861 306 l-49 25 -50 -26z"/>
<path d="M5523 6400 c-39 -23 -53 -48 -53 -94 0 -72 93 -129 154 -96 21 11 45
5 187 -43 90 -30 252 -76 359 -102 107 -26 201 -49 208 -51 15 -4 17 -268 1
-434 -53 -579 -355 -1080 -924 -1531 -49 -39 -92 -75 -93 -80 -2 -5 11 -28 29
-52 18 -23 34 -44 35 -46 4 -5 174 129 264 208 313 274 553 597 685 922 37 92
91 295 116 434 17 96 22 176 26 403 3 155 3 282 0 282 -3 0 -62 11 -132 25
-170 34 -284 65 -507 136 -149 47 -191 64 -204 83 -16 26 -71 56 -101 56 -10
0 -32 -9 -50 -20z"/>
<path d="M5100 6350 c-70 -39 -527 -169 -715 -203 l-130 -24 1 -269 c1 -288
11 -386 59 -583 27 -109 65 -228 95 -296 10 -22 30 -67 45 -100 62 -142 187
-331 317 -484 26 -30 38 -53 38 -75 0 -42 31 -90 69 -106 26 -10 40 -10 72 -1
102 31 101 172 -2 202 -33 10 -55 30 -112 98 -226 274 -375 603 -434 956 -12
71 -17 165 -17 324 l-1 224 155 37 c195 46 451 123 607 181 l23 8 -21 53 c-25
64 -29 69 -49 58z"/>
<path d="M3870 5978 c0 -598 179 -1139 544 -1652 178 -249 496 -572 774 -786
61 -46 85 -71 89 -92 3 -15 21 -42 40 -58 47 -42 92 -41 138 3 49 46 51 102 6
148 -22 21 -39 29 -66 29 -30 0 -54 13 -133 74 -145 111 -375 320 -477 432
-50 54 -92 101 -95 104 -3 3 -33 39 -66 80 -139 172 -256 353 -352 545 -187
375 -272 739 -272 1173 l0 172 -65 0 -65 0 0 -172z"/>
<path d="M5275 6019 c-163 -64 -299 -108 -484 -155 -96 -24 -176 -46 -179 -48
-2 -3 -4 -85 -4 -183 0 -206 16 -323 68 -481 108 -332 325 -608 700 -894 24
-18 306 234 438 392 151 180 264 403 316 625 23 101 40 276 40 427 0 114 -1
118 -22 122 -200 42 -444 114 -613 181 -66 26 -129 49 -140 50 -11 2 -65 -14
-120 -36z m248 -194 c192 -50 347 -198 413 -395 13 -40 18 -86 19 -165 0 -139
-24 -222 -96 -329 -228 -341 -730 -342 -957 -2 -75 112 -97 186 -97 326 0 86
5 129 19 170 65 193 213 337 401 391 76 22 222 24 298 4z"/>
<path d="M5269 5762 c-67 -44 -149 -142 -149 -182 0 -17 43 -11 74 9 16 11 58
27 93 37 l63 17 0 73 c0 87 -8 92 -81 46z"/>
<path d="M5406 5774 c-3 -9 -6 -42 -6 -73 l0 -58 55 -12 c30 -7 74 -22 97 -35
37 -19 78 -24 78 -10 0 17 -45 87 -79 121 -37 39 -107 83 -130 83 -5 0 -12 -7
-15 -16z"/>
<path d="M5603 5729 c9 -13 34 -52 54 -87 41 -68 63 -81 116 -65 l32 10 -59
57 c-33 32 -82 69 -110 83 l-50 25 17 -23z"/>
<path d="M5082 5700 c-60 -40 -122 -101 -122 -120 0 -6 20 -10 45 -10 38 0 47
4 61 28 10 15 32 51 51 80 19 30 33 56 30 58 -2 3 -31 -14 -65 -36z"/>
<path d="M5729 5523 c-14 -3 -14 -10 -2 -57 7 -29 17 -80 21 -112 l7 -59 73
-3 c58 -2 73 0 78 12 8 21 -13 108 -42 174 l-23 52 -48 -1 c-26 -1 -55 -3 -64
-6z"/>
<path d="M4906 5497 c-24 -36 -46 -108 -49 -157 l-2 -45 70 0 70 0 11 75 c7
42 17 93 22 113 l10 37 -59 0 c-50 0 -61 -3 -73 -23z"/>
<path d="M5244 5482 c-18 -11 -30 -42 -49 -119 -15 -65 -20 -73 -41 -73 -15 0
-24 -6 -24 -15 0 -13 33 -15 258 -13 163 2 257 7 257 13 0 6 -12 11 -26 13
-23 3 -27 10 -43 80 -10 42 -24 87 -32 100 -17 27 -56 29 -114 6 -38 -15 -44
-15 -83 0 -45 17 -85 20 -103 8z m104 -44 c36 -10 49 -10 97 7 38 13 59 15 66
8 8 -8 47 -138 49 -160 0 -2 -76 -3 -170 -3 -194 0 -181 -8 -153 94 17 64 29
79 53 72 8 -3 34 -11 58 -18z"/>
<path d="M5790 5241 l-34 -6 -13 -85 c-6 -47 -15 -102 -19 -122 l-7 -38 56 0
c48 0 58 4 76 26 24 30 48 103 57 174 6 47 6 47 -26 54 -35 7 -38 6 -90 -3z"/>
<path d="M4850 5214 c0 -38 28 -142 51 -186 19 -38 20 -38 80 -38 58 0 60 1
53 23 -4 12 -15 67 -24 122 l-17 100 -71 3 c-72 3 -72 3 -72 -24z"/>
<path d="M5204 5222 c-52 -41 -55 -109 -8 -153 19 -18 37 -24 70 -24 57 0 96
36 99 92 2 30 7 38 21 38 13 0 20 -8 22 -25 6 -56 14 -71 45 -90 39 -24 70
-25 107 -3 86 51 52 183 -47 183 -21 0 -49 -8 -63 -17 -28 -20 -94 -19 -127 3
-30 19 -93 17 -119 -4z m106 -32 c24 -24 26 -67 3 -92 -20 -22 -70 -23 -95 -1
-40 36 -8 113 47 113 14 0 34 -9 45 -20z m231 9 c28 -15 42 -55 28 -82 -16
-30 -28 -37 -66 -37 -57 0 -82 63 -41 107 23 25 48 29 79 12z"/>
<path d="M5080 5034 c0 -18 26 -47 39 -43 8 3 3 13 -13 28 -14 14 -26 20 -26
15z"/>
<path d="M5645 5010 c-15 -17 -16 -20 -3 -20 9 0 19 7 22 16 10 25 1 27 -19 4z"/>
<path d="M4969 4922 c19 -36 156 -142 183 -142 5 0 -5 19 -22 43 -17 23 -41
58 -53 77 -20 31 -28 35 -70 38 -45 3 -48 2 -38 -16z"/>
<path d="M5120 4935 c0 -18 37 -74 78 -117 50 -53 88 -78 122 -78 18 0 20 6
20 78 l0 77 -62 19 c-68 19 -158 32 -158 21z"/>
<path d="M5505 4919 c-27 -10 -62 -18 -76 -19 -24 0 -27 -5 -33 -50 -8 -59 1
-120 18 -120 26 1 94 40 130 76 40 41 86 106 86 124 0 15 -69 9 -125 -11z"/>
<path d="M5667 4893 c-14 -27 -37 -63 -51 -82 -14 -19 -24 -36 -22 -38 12 -13
177 111 196 148 10 18 7 19 -43 19 l-54 0 -26 -47z"/>
<path d="M6777 6009 c-46 -27 -60 -112 -26 -161 21 -29 21 -30 5 -171 -28
-249 -88 -484 -179 -707 -82 -202 -242 -470 -396 -665 -39 -49 -70 -93 -68
-96 1 -4 22 -23 46 -44 44 -36 45 -36 60 -17 231 288 368 513 485 802 101 251
158 485 186 765 8 81 16 115 29 130 10 11 21 32 25 47 7 32 -15 94 -42 114
-20 16 -100 18 -125 3z"/>
</g>
</svg>
